<svg xmlns="http://www.w3.org/2000/svg" width="14.308" height="12.879" viewBox="0 0 14.308 12.879">
  <path id="camera_icon" d="M8.836,0a1.747,1.747,0,0,1,1.588,1.008c.085.17.207.415.328.679L10.9,2h0l.074.156.072.158a.163.163,0,0,0,.143.086,3.125,3.125,0,0,1,3.119,3.12h0V9.763a3.125,3.125,0,0,1-3.12,3.116H3.12A3.121,3.121,0,0,1,0,9.763H0V5.517A3.121,3.121,0,0,1,3.12,2.4a.14.14,0,0,0,.136-.086h0L3.3,2.229c.2-.422.444-.933.587-1.222A1.737,1.737,0,0,1,5.466,0h3.37ZM7.154,4.581a2.806,2.806,0,0,0-2,.829A2.765,2.765,0,0,0,4.342,7.39,2.814,2.814,0,1,0,7.154,4.581Zm0,1.072A1.738,1.738,0,1,1,5.416,7.39h0V7.382a1.679,1.679,0,0,1,.5-1.215,1.733,1.733,0,0,1,1.237-.514Zm4.014-1.244a.649.649,0,1,0,.461.19.647.647,0,0,0-.461-.19Z" fill="#53499e"/>
</svg>
