<?xml version="1.0" encoding="UTF-8" standalone="no"?> <svg width="64" height="64" viewBox="0 0 64 64" fill="none" xmlns="http://www.w3.org/2000/svg">
<path d="M46.83 18.0897C46.2685 17.498 45.5923 17.027 44.8427 16.7055C44.093 16.384 43.2857 16.2187 42.47 16.2197H21.53C20.7153 16.2186 19.9089 16.3835 19.16 16.7042C18.411 17.0249 17.7353 17.4948 17.1739 18.0852C16.6125 18.6756 16.1772 19.3742 15.8946 20.1383C15.6119 20.9024 15.4879 21.7161 15.53 22.5297L17 51.7997C17.077 53.3385 17.743 54.7886 18.86 55.8497C19.977 56.9109 21.4593 57.5017 23 57.4997H41C42.5406 57.5017 44.023 56.9109 45.14 55.8497C46.257 54.7886 46.923 53.3385 47 51.7997L48.5 22.5397C48.543 21.723 48.4168 20.9062 48.1295 20.1404C47.8421 19.3747 47.3997 18.6765 46.83 18.0897V18.0897ZM44 51.6397C43.964 52.4109 43.6321 53.1384 43.0733 53.6711C42.5146 54.2038 41.772 54.5006 41 54.4997H23C22.228 54.5006 21.4854 54.2038 20.9267 53.6711C20.3679 53.1384 20.036 52.4109 20 51.6397L18.5 22.3797C18.4782 21.9725 18.5397 21.5651 18.6807 21.1825C18.8217 20.7998 19.0393 20.45 19.32 20.1542C19.6008 19.8585 19.9389 19.6231 20.3137 19.4624C20.6886 19.3017 21.0922 19.2192 21.5 19.2197H42.47C42.8778 19.2192 43.2814 19.3017 43.6562 19.4624C44.031 19.6231 44.3692 19.8585 44.6499 20.1542C44.9307 20.45 45.1482 20.7998 45.2892 21.1825C45.4302 21.5651 45.4917 21.9725 45.47 22.3797L44 51.6397Z" fill="url(#paint0_linear_206_9248)"/>
<path d="M22.0801 15.1697H41.9201C42.3179 15.1697 42.6994 15.0117 42.9807 14.7304C43.262 14.4491 43.4201 14.0675 43.4201 13.6697C43.4201 13.2719 43.262 12.8903 42.9807 12.609C42.6994 12.3277 42.3179 12.1697 41.9201 12.1697H39.0001C38.6468 10.5764 37.7606 9.15138 36.4879 8.12992C35.2151 7.10847 33.632 6.55176 32.0001 6.55176C30.3681 6.55176 28.785 7.10847 27.5123 8.12992C26.2395 9.15138 25.3533 10.5764 25.0001 12.1697H22.0801C21.6823 12.1697 21.3007 12.3277 21.0194 12.609C20.7381 12.8903 20.5801 13.2719 20.5801 13.6697C20.5801 14.0675 20.7381 14.4491 21.0194 14.7304C21.3007 15.0117 21.6823 15.1697 22.0801 15.1697ZM32.0001 9.49969C32.8406 9.50189 33.6607 9.758 34.3531 10.2345C35.0455 10.7109 35.5778 11.3855 35.8801 12.1697H28.1201C28.4224 11.3855 28.9547 10.7109 29.647 10.2345C30.3394 9.758 31.1596 9.50189 32.0001 9.49969V9.49969Z" fill="url(#paint1_linear_206_9248)"/>
<path d="M26.1099 27C25.712 27 25.3305 27.158 25.0492 27.4393C24.7679 27.7206 24.6099 28.1022 24.6099 28.5V47.17C24.6099 47.5678 24.7679 47.9494 25.0492 48.2307C25.3305 48.512 25.712 48.67 26.1099 48.67C26.5077 48.67 26.8892 48.512 27.1705 48.2307C27.4518 47.9494 27.6099 47.5678 27.6099 47.17V28.51C27.6112 28.3122 27.5734 28.116 27.4986 27.9329C27.4238 27.7498 27.3135 27.5832 27.1741 27.4429C27.0347 27.3025 26.8689 27.1911 26.6862 27.1151C26.5036 27.0391 26.3077 27 26.1099 27V27Z" fill="url(#paint2_linear_206_9248)"/>
<path d="M32 27C31.6022 27 31.2206 27.158 30.9393 27.4393C30.658 27.7206 30.5 28.1022 30.5 28.5V47.17C30.5 47.5678 30.658 47.9494 30.9393 48.2307C31.2206 48.512 31.6022 48.67 32 48.67C32.3978 48.67 32.7794 48.512 33.0607 48.2307C33.342 47.9494 33.5 47.5678 33.5 47.17V28.51C33.5013 28.3122 33.4635 28.116 33.3887 27.9329C33.3139 27.7498 33.2036 27.5832 33.0642 27.4429C32.9248 27.3025 32.759 27.1911 32.5763 27.1151C32.3937 27.0391 32.1978 27 32 27V27Z" fill="url(#paint3_linear_206_9248)"/>
<path d="M37.8901 27C37.4923 27 37.1108 27.158 36.8295 27.4393C36.5482 27.7206 36.3901 28.1022 36.3901 28.5V47.17C36.3901 47.5678 36.5482 47.9494 36.8295 48.2307C37.1108 48.512 37.4923 48.67 37.8901 48.67C38.288 48.67 38.6695 48.512 38.9508 48.2307C39.2321 47.9494 39.3901 47.5678 39.3901 47.17V28.51C39.3915 28.3122 39.3536 28.116 39.2788 27.9329C39.204 27.7498 39.0938 27.5832 38.9543 27.4429C38.8149 27.3025 38.6491 27.1911 38.4665 27.1151C38.2838 27.0391 38.088 27 37.8901 27V27Z" fill="url(#paint4_linear_206_9248)"/>
<defs>
<linearGradient id="paint0_linear_206_9248" x1="15.52" y1="36.8597" x2="48.48" y2="36.8597" gradientUnits="userSpaceOnUse">
<stop stop-color="#FD2411"/>
<stop offset="0.31" stop-color="#DE170C"/>
<stop offset="0.76" stop-color="#B70606"/>
<stop offset="1" stop-color="#A80004"/>
</linearGradient>
<linearGradient id="paint1_linear_206_9248" x1="490.627" y1="99.884" x2="1012.29" y2="99.884" gradientUnits="userSpaceOnUse">
<stop stop-color="#FD2411"/>
<stop offset="0.31" stop-color="#DE170C"/>
<stop offset="0.76" stop-color="#B70606"/>
<stop offset="1" stop-color="#A80004"/>
</linearGradient>
<linearGradient id="paint2_linear_206_9248" x1="98.4407" y1="846.993" x2="107.441" y2="846.993" gradientUnits="userSpaceOnUse">
<stop stop-color="#FD2411"/>
<stop offset="0.31" stop-color="#DE170C"/>
<stop offset="0.76" stop-color="#B70606"/>
<stop offset="1" stop-color="#A80004"/>
</linearGradient>
<linearGradient id="paint3_linear_206_9248" x1="122.001" y1="846.993" x2="131.001" y2="846.993" gradientUnits="userSpaceOnUse">
<stop stop-color="#FD2411"/>
<stop offset="0.31" stop-color="#DE170C"/>
<stop offset="0.76" stop-color="#B70606"/>
<stop offset="1" stop-color="#A80004"/>
</linearGradient>
<linearGradient id="paint4_linear_206_9248" x1="145.561" y1="846.993" x2="154.561" y2="846.993" gradientUnits="userSpaceOnUse">
<stop stop-color="#FD2411"/>
<stop offset="0.31" stop-color="#DE170C"/>
<stop offset="0.76" stop-color="#B70606"/>
<stop offset="1" stop-color="#A80004"/>
</linearGradient>
</defs>
</svg>
