<svg id="google_icon" xmlns="http://www.w3.org/2000/svg" xmlns:xlink="http://www.w3.org/1999/xlink" width="18.845" height="19.283" viewBox="0 0 18.845 19.283">
  <defs>
    <clipPath id="clip-path">
      <path id="Path_11647" data-name="Path 11647" d="M20.626,9.888H11.641v3.725h5.171c-.482,2.367-2.5,3.725-5.171,3.725a5.7,5.7,0,1,1,0-11.394,5.574,5.574,0,0,1,3.55,1.271L18,4.41a9.635,9.635,0,1,0-6.355,16.873c4.821,0,9.2-3.506,9.2-9.641A8,8,0,0,0,20.626,9.888Z" transform="translate(-2 -2)"/>
    </clipPath>
  </defs>
  <g id="Group_3565" data-name="Group 3565" clip-path="url(#clip-path)">
    <path id="Path_11646" data-name="Path 11646" d="M0,22.394V11l7.45,5.7Z" transform="translate(-0.876 -7.056)" fill="#fbbc05"/>
  </g>
  <g id="Group_3566" data-name="Group 3566" clip-path="url(#clip-path)">
    <path id="Path_11648" data-name="Path 11648" d="M0,4.821l7.45,5.7,3.068-2.673L21.036,6.135V0H0Z" transform="translate(-0.876 -0.876)" fill="#ea4335"/>
  </g>
  <g id="Group_3567" data-name="Group 3567" clip-path="url(#clip-path)">
    <path id="Path_11650" data-name="Path 11650" d="M0,16.215,13.147,6.135l3.462.438L21.036,0V21.036H0Z" transform="translate(-0.876 -0.876)" fill="#34a853"/>
  </g>
  <g id="Group_3568" data-name="Group 3568" clip-path="url(#clip-path)">
    <path id="Path_11652" data-name="Path 11652" d="M28.339,27.215,14.753,16.7,13,15.382,28.339,11Z" transform="translate(-8.179 -7.056)" fill="#4285f4"/>
  </g>
</svg>
