<svg xmlns="http://www.w3.org/2000/svg" width="16.849" height="16.849" viewBox="0 0 16.849 16.849">
  <path id="phone_call_icon" d="M9.153.7a.7.7,0,0,1,.7-.7,7.04,7.04,0,0,1,7.032,7.032.7.7,0,1,1-1.406,0A5.632,5.632,0,0,0,9.856,1.406a.7.7,0,0,1-.7-.7Zm.7,3.516a2.813,2.813,0,0,1,2.813,2.813.7.7,0,1,0,1.406,0A4.223,4.223,0,0,0,9.856,2.812a.7.7,0,1,0,0,1.406ZM16.25,11.77a2.18,2.18,0,0,1,0,3.079l-.64.738C9.851,21.1-4.163,7.089,1.265,1.312l.809-.7A2.167,2.167,0,0,1,5.117.637c.022.022,1.325,1.714,1.325,1.714a2.18,2.18,0,0,1,0,3.011L5.622,6.386A8.987,8.987,0,0,0,10.5,11.27l1.03-.819a2.18,2.18,0,0,1,3.01,0S16.229,11.748,16.25,11.77Zm-.968,1.022s-1.683-1.295-1.7-1.316a.774.774,0,0,0-1.089,0c-.019.02-1.437,1.15-1.437,1.15a.7.7,0,0,1-.688.107,10.554,10.554,0,0,1-6.2-6.194.7.7,0,0,1,.1-.7S5.392,4.417,5.411,4.4a.774.774,0,0,0,0-1.089C5.39,3.288,4.1,1.6,4.1,1.6a.774.774,0,0,0-1.062.027l-.809.7C-1.743,7.105,10.4,18.576,14.582,14.626l.641-.738a.788.788,0,0,0,.06-1.095Z" transform="translate(-0.039 0.002)" fill="#462cff"/>
</svg>
