<svg xmlns="http://www.w3.org/2000/svg" width="18.931" height="18.931" viewBox="0 0 18.931 18.931">
  <g id="prof_sett_icon" transform="translate(-3.75 -3.75)">
    <path id="Path_11960" data-name="Path 11960" d="M11.2,5.837A1.337,1.337,0,0,1,12.541,4.5H13.89a1.337,1.337,0,0,1,1.337,1.337v.391a.9.9,0,0,0,1.508.625l.277-.276a1.337,1.337,0,0,1,1.89,0l.954.954a1.337,1.337,0,0,1,0,1.891l-.276.277A.9.9,0,0,0,20.2,11.2h.391a1.337,1.337,0,0,1,1.337,1.337V13.89a1.337,1.337,0,0,1-1.337,1.337H20.2a.9.9,0,0,0-.625,1.508l.276.276a1.337,1.337,0,0,1,0,1.89l-.954.954a1.337,1.337,0,0,1-1.89,0l-.276-.277a.9.9,0,0,0-1.507.624v.391a1.337,1.337,0,0,1-1.337,1.337H12.541A1.337,1.337,0,0,1,11.2,20.594V20.2A.9.9,0,0,0,9.7,19.579l-.276.276a1.337,1.337,0,0,1-1.891,0L6.576,18.9a1.337,1.337,0,0,1,0-1.891l.277-.277a.9.9,0,0,0-.625-1.507H5.837A1.337,1.337,0,0,1,4.5,13.89V12.541A1.337,1.337,0,0,1,5.837,11.2h.391A.9.9,0,0,0,6.852,9.7L6.576,9.42a1.337,1.337,0,0,1,0-1.89l.954-.954a1.337,1.337,0,0,1,1.89,0l.277.277A.9.9,0,0,0,11.2,6.228Z" fill="none" stroke="#fff" stroke-linecap="round" stroke-linejoin="round" stroke-width="1.5"/>
    <path id="Path_11961" data-name="Path 11961" d="M14.979,12.365A2.615,2.615,0,1,1,12.365,9.75,2.615,2.615,0,0,1,14.979,12.365Z" transform="translate(0.851 0.851)" fill="none" stroke="#fff" stroke-linecap="round" stroke-linejoin="round" stroke-width="1.5"/>
  </g>
</svg>
