<svg xmlns="http://www.w3.org/2000/svg" width="14.034" height="14.473" viewBox="0 0 14.034 14.473">
  <g id="prof_logout_icon" transform="translate(0 -1.479)">
    <path id="Path_11965" data-name="Path 11965" d="M14.459,7.686l-2.4-2.4-.686.689,2.088,2.088H6.617v.971h6.84l-2.088,2.088.687.687,2.4-2.4a1.214,1.214,0,0,0,0-1.717Z" transform="translate(-0.781 0.17)" fill="#fff"/>
    <path id="Path_11966" data-name="Path 11966" d="M7.608,12.5a.673.673,0,0,1-.726.6h-4.7a.673.673,0,0,1-.726-.6V2.026a.673.673,0,0,1,.726-.6h4.7a.673.673,0,0,1,.726.6v3H9.061V1.809A2.02,2.02,0,0,0,6.882,0h-4.7A2.02,2.02,0,0,0,0,1.809V12.664a2.02,2.02,0,0,0,2.179,1.809h4.7a2.02,2.02,0,0,0,2.179-1.809V9.448H7.608Z" transform="translate(0 1.479)" fill="#fff"/>
  </g>
</svg>
