<svg xmlns="http://www.w3.org/2000/svg" width="21.136" height="21.136" viewBox="0 0 21.136 21.136">
  <g id="prof_user_icon" transform="translate(-1.5 -1.5)">
    <path id="Path_11962" data-name="Path 11962" d="M12.068,21.886A9.818,9.818,0,1,0,2.25,12.068,9.818,9.818,0,0,0,12.068,21.886Z" fill="none" stroke="#fff" stroke-linecap="round" stroke-linejoin="round" stroke-miterlimit="10" stroke-width="1.5"/>
    <path id="Path_11963" data-name="Path 11963" d="M12.016,12.031A2.266,2.266,0,1,0,9.752,9.766,2.265,2.265,0,0,0,12.016,12.031Z" transform="translate(0.052 0.037)" fill="none" stroke="#fff" stroke-linecap="round" stroke-linejoin="round" stroke-miterlimit="10" stroke-width="1.5"/>
    <path id="Path_11964" data-name="Path 11964" d="M15.055,14.25c1.667,0,3,1.506,1.821,2.688a6.881,6.881,0,0,1-4.839,1.843A6.881,6.881,0,0,1,7.2,16.938c-1.176-1.182.154-2.688,1.821-2.688Z" transform="translate(0.031 0.084)" fill="none" stroke="#fff" stroke-linecap="round" stroke-linejoin="round" stroke-miterlimit="10" stroke-width="1.5"/>
  </g>
</svg>
