<svg xmlns="http://www.w3.org/2000/svg" width="23.694" height="23.335" viewBox="0 0 23.694 23.335">
  <g id="snapchat_icon" transform="translate(-14.734 -15.753)">
    <path id="Path_10839" data-name="Path 10839" d="M544.472,856.278a10.583,10.583,0,0,0,4.776-4.261c0-.776-2.508-2.27-2.508-2.27s-.657-2.21,1.492-2.329c1.195.239,1.314.6,1.314.6s-1.134-4.718,2.449-7.345a8.656,8.656,0,0,1,7.584,0,5.56,5.56,0,0,1,2.329,4.837v2.508s.239-.419,1.314-.6a1.435,1.435,0,0,1,1.612.956c0,.179.6,1.672-2.449,2.807.359.3-.9,1.553,3.643,4.718.359.478,1.792,1.015,0,1.851s-1.97.6-2.209,1.075.895,1.015-3.763,1.373a12.806,12.806,0,0,0-3.1,1.434s-1.373.837-4.419-.836-3.344-1.015-3.882-.956-1.493-1.553-1.493-1.553a9.051,9.051,0,0,1-2.15-.956A1.276,1.276,0,0,1,544.472,856.278Z" transform="translate(-529.143 -823.367)" fill="#fff"/>
    <path id="snapchat" d="M36.948,34.067a1.647,1.647,0,0,0-.835-.886c-.067-.039-.129-.071-.182-.1-.107-.055-.215-.108-.324-.165A7.071,7.071,0,0,1,33.022,30.7a5.023,5.023,0,0,1-.444-.787.374.374,0,0,1-.012-.307.5.5,0,0,1,.142-.148c.191-.126.389-.255.522-.341.238-.154.427-.277.549-.363a2.992,2.992,0,0,0,.976-1.039,2.068,2.068,0,0,0,.1-1.718,2.032,2.032,0,0,0-1.967-1.291,2.711,2.711,0,0,0-.572.061c-.05.011-.1.022-.15.035.008-.545,0-1.12-.052-1.686a6.147,6.147,0,0,0-1.6-3.864A6.355,6.355,0,0,0,28.9,17.949a7.736,7.736,0,0,0-7.426,0,6.334,6.334,0,0,0-1.625,1.307,6.152,6.152,0,0,0-1.6,3.864c-.048.566-.061,1.144-.053,1.686-.049-.013-.1-.024-.149-.035a2.708,2.708,0,0,0-.572-.061A2.031,2.031,0,0,0,15.515,26a2.071,2.071,0,0,0,.1,1.72,3,3,0,0,0,.977,1.039c.121.085.311.207.549.363.129.084.317.206.5.328a.54.54,0,0,1,.161.162.382.382,0,0,1-.018.322,4.98,4.98,0,0,1-.436.771,7.051,7.051,0,0,1-2.511,2.179c-.571.3-1.164.5-1.415,1.186a1.5,1.5,0,0,0,.415,1.591,2.4,2.4,0,0,0,.605.458,6.559,6.559,0,0,0,1.481.593.978.978,0,0,1,.3.134c.175.153.15.384.383.722a1.683,1.683,0,0,0,.438.446,2.877,2.877,0,0,0,1.621.381,6.168,6.168,0,0,1,1.8.268,4.633,4.633,0,0,1,.915.484A6.685,6.685,0,0,0,29,39.142a4.711,4.711,0,0,1,.9-.476,6.145,6.145,0,0,1,1.8-.268,2.877,2.877,0,0,0,1.621-.381,1.688,1.688,0,0,0,.5-.545c.168-.285.163-.484.321-.623a.926.926,0,0,1,.281-.128,6.586,6.586,0,0,0,1.5-.6,2.36,2.36,0,0,0,.636-.5l.006-.007A1.479,1.479,0,0,0,36.948,34.067Zm-1.661.892c-1.013.559-1.686.5-2.21.837-.445.286-.182.9-.5,1.127-.4.274-1.571-.02-3.087.481-1.251.413-2.049,1.6-4.3,1.6s-3.029-1.186-4.3-1.605c-1.513-.5-2.69-.207-3.087-.481-.323-.223-.061-.84-.5-1.127-.524-.337-1.2-.277-2.21-.834-.645-.356-.279-.576-.064-.68,3.669-1.776,4.254-4.518,4.28-4.722a.648.648,0,0,0-.2-.691c-.262-.242-1.425-.962-1.748-1.187-.534-.373-.769-.745-.6-1.2a.718.718,0,0,1,.726-.436,1.35,1.35,0,0,1,.291.033c.586.127,1.155.421,1.484.5a.525.525,0,0,0,.121.016c.176,0,.237-.088.225-.289a21.432,21.432,0,0,1-.027-3.058,4.848,4.848,0,0,1,1.271-3.107,5.674,5.674,0,0,1,4.338-1.805,5.693,5.693,0,0,1,4.342,1.8A4.839,4.839,0,0,1,30.8,23.235a20.889,20.889,0,0,1-.027,3.058c-.014.211.05.289.225.289a.52.52,0,0,0,.121-.016c.329-.079.9-.373,1.484-.5a1.349,1.349,0,0,1,.291-.033.719.719,0,0,1,.726.436c.173.458-.061.83-.6,1.2-.323.225-1.486.944-1.748,1.187a.647.647,0,0,0-.2.691c.026.206.611,2.949,4.28,4.722C35.567,34.38,35.932,34.6,35.288,34.959Z" transform="translate(1.395 -1.247)" fill="#060a10"/>
  </g>
</svg>
