<svg id="stcs_icon" xmlns="http://www.w3.org/2000/svg" width="14.357" height="14.933" viewBox="0 0 14.357 14.933">
  <path id="Path_11975" data-name="Path 11975" d="M3.29,13.067a1.526,1.526,0,0,1-1.5-1.556V.933A.916.916,0,0,0,.9,0h0A.916.916,0,0,0,0,.933V11.511a3.358,3.358,0,0,0,3.29,3.422H13.459a.916.916,0,0,0,.9-.933h0a.916.916,0,0,0-.9-.933Z" fill="#462cff"/>
  <path id="Path_11976" data-name="Path 11976" d="M18.97,15.9a1.072,1.072,0,0,0,.97-1.15v-4.6A1.072,1.072,0,0,0,18.97,9,1.072,1.072,0,0,0,18,10.15v4.6A1.072,1.072,0,0,0,18.97,15.9Z" transform="translate(-7.672 -4.181)" fill="#462cff"/>
  <path id="Path_11977" data-name="Path 11977" d="M6.972,15.9a1.072,1.072,0,0,0,.972-1.15v-4.6A1.072,1.072,0,0,0,6.972,9,1.072,1.072,0,0,0,6,10.15v4.6A1.072,1.072,0,0,0,6.972,15.9Z" transform="translate(-2.555 -4.181)" fill="#462cff"/>
  <path id="Path_11978" data-name="Path 11978" d="M12.97,14.736a1.072,1.072,0,0,0,.97-1.15V5.15A1.072,1.072,0,0,0,12.97,4,1.072,1.072,0,0,0,12,5.15v8.436A1.072,1.072,0,0,0,12.97,14.736Z" transform="translate(-5.111 -2.321)" fill="#462cff"/>
</svg>
