<svg xmlns="http://www.w3.org/2000/svg" width="35.259" height="35.259" viewBox="0 0 35.259 35.259">
  <path id="stcs_03" d="M17.629,0A17.629,17.629,0,1,0,35.259,17.629,17.629,17.629,0,0,0,17.629,0Zm0,32.321A14.691,14.691,0,1,1,32.321,17.629,14.691,14.691,0,0,1,17.629,32.321ZM10.284,13.957c0-2.029.987-3.673,2.2-3.673s2.2,1.644,2.2,3.673-.987,3.673-2.2,3.673S10.284,15.985,10.284,13.957Zm10.284,0c0-2.029.987-3.673,2.2-3.673s2.2,1.644,2.2,3.673-.987,3.673-2.2,3.673S20.568,15.985,20.568,13.957Zm-2.938,8.08a32.207,32.207,0,0,0,8.825-1.469c-.9,3.35-3.914,7.346-8.815,7.346s-7.921-4-8.825-7.346A32.087,32.087,0,0,0,17.629,22.037Z" fill="#462cff"/>
</svg>
