<svg xmlns="http://www.w3.org/2000/svg" width="35.072" height="35.072" viewBox="0 0 35.072 35.072">
  <g id="stcs_04" transform="translate(0.25 0.25)">
    <path id="Path_10840" data-name="Path 10840" d="M17.286,0A17.286,17.286,0,1,0,34.572,17.286,17.286,17.286,0,0,0,17.286,0Zm0,31.691A14.405,14.405,0,1,1,31.691,17.286,14.405,14.405,0,0,1,17.286,31.691Z" fill="#462cff" stroke="#462cff" stroke-width="0.5"/>
    <path id="Path_10841" data-name="Path 10841" d="M14.133,6a1.441,1.441,0,0,0-1.441,1.441v6.23L7.837,16.713a1.444,1.444,0,1,0,1.53,2.449L14.9,15.7a1.441,1.441,0,0,0,.676-1.236V7.441A1.441,1.441,0,0,0,14.133,6Z" transform="translate(3.153 2.643)" fill="#462cff" stroke="#462cff" stroke-width="0.5"/>
  </g>
</svg>
