<svg xmlns="http://www.w3.org/2000/svg" width="33.908" height="33.908" viewBox="0 0 33.908 33.908">
  <path id="stcs_02" d="M26.844,5.651H21.193V4.239a4.239,4.239,0,1,0-8.477,0V5.651H7.064A7.073,7.073,0,0,0,0,12.716V26.844a7.073,7.073,0,0,0,7.064,7.064h19.78a7.073,7.073,0,0,0,7.064-7.064V12.716a7.073,7.073,0,0,0-7.064-7.064Zm-11.3-1.413a1.413,1.413,0,0,1,2.826,0V7.064a1.413,1.413,0,0,1-2.826,0ZM31.083,26.844a4.239,4.239,0,0,1-4.239,4.239H7.064a4.239,4.239,0,0,1-4.239-4.239V12.716A4.239,4.239,0,0,1,7.064,8.477h5.911a4.213,4.213,0,0,0,7.957,0h5.911a4.239,4.239,0,0,1,4.239,4.239ZM14.128,14.128H7.064a1.413,1.413,0,0,0-1.413,1.413v11.3a1.413,1.413,0,0,0,1.413,1.413h7.064a1.413,1.413,0,0,0,1.413-1.413v-11.3A1.413,1.413,0,0,0,14.128,14.128Zm-1.413,11.3H8.477V16.954h4.239Zm15.541-4.239a1.413,1.413,0,0,1-1.413,1.413H19.78a1.413,1.413,0,1,1,0-2.826h7.064A1.413,1.413,0,0,1,28.257,21.193Zm0-5.651a1.413,1.413,0,0,1-1.413,1.413H19.78a1.413,1.413,0,1,1,0-2.826h7.064A1.413,1.413,0,0,1,28.257,15.541Zm-2.826,11.3a1.413,1.413,0,0,1-1.413,1.413H19.78a1.413,1.413,0,1,1,0-2.826h4.239A1.413,1.413,0,0,1,25.431,26.844Z" fill="#462cff"/>
</svg>
