<svg xmlns="http://www.w3.org/2000/svg" width="36.815" height="36.815" viewBox="0 0 36.815 36.815">
  <path id="stcs_01" d="M11.5,19.942a6.9,6.9,0,1,1,6.9-6.9,6.9,6.9,0,0,1-6.9,6.9ZM11.5,9.2a3.835,3.835,0,1,0,3.835,3.835A3.835,3.835,0,0,0,11.5,9.2Zm11.5,26.078v-.767a11.5,11.5,0,0,0-23.01,0v.767a1.534,1.534,0,1,0,3.068,0v-.767a8.437,8.437,0,1,1,16.874,0v.767a1.534,1.534,0,1,0,3.068,0Zm13.806-7.67a10.738,10.738,0,0,0-17.9-8,1.534,1.534,0,1,0,2.046,2.286,7.67,7.67,0,0,1,12.783,5.717,1.534,1.534,0,0,0,3.068,0ZM26.845,13.806a6.9,6.9,0,1,1,6.9-6.9,6.9,6.9,0,0,1-6.9,6.9Zm0-10.738A3.835,3.835,0,1,0,30.68,6.9,3.835,3.835,0,0,0,26.845,3.068Z" fill="#462cff"/>
</svg>
