<svg xmlns="http://www.w3.org/2000/svg" width="55.135" height="56.964" viewBox="0 0 55.135 56.964">
  <g id="stp-arrow" transform="matrix(0.53, 0.848, -0.848, 0.53, -459.498, 204.871)" opacity="0.44">
    <path id="Path_10446" data-name="Path 10446" d="M93.347-488.47c.136-1.516.21-2.984.407-4.435a31.9,31.9,0,0,1,7.444-16.666,32.394,32.394,0,0,1,17.57-10.763,31.6,31.6,0,0,1,7.286-.853,1.47,1.47,0,0,1,1.592,1.439,1.467,1.467,0,0,1-1.565,1.467,29.365,29.365,0,0,0-19.715,7.574,29.047,29.047,0,0,0-9.6,17.406c-.251,1.517-.292,3.068-.427,4.6a1.3,1.3,0,0,0,.015.212l.181.147a1.71,1.71,0,0,1,.232-.438c2.113-2.126,4.239-4.239,6.35-6.367a1.538,1.538,0,0,1,1.6-.479,1.445,1.445,0,0,1,.743,2.216,3.306,3.306,0,0,1-.365.4q-4.478,4.481-8.959,8.96a1.518,1.518,0,0,1-2.5,0q-4.48-4.479-8.952-8.967a2.155,2.155,0,0,1-.545-.91,1.361,1.361,0,0,1,.693-1.539,1.416,1.416,0,0,1,1.751.259c1.132,1.116,2.252,2.244,3.376,3.367q1.526,1.525,3.051,3.05C93.114-488.675,93.225-488.581,93.347-488.47Z" transform="translate(2.65 -4.24)" fill="rgba(222,239,253,0.47)"/>
  </g>
</svg>
