<svg xmlns="http://www.w3.org/2000/svg" width="21.524" height="21.136" viewBox="0 0 21.524 21.136">
  <g id="user_icon" transform="translate(0.75 0.75)">
    <path id="Path_11962" data-name="Path 11962" d="M12.262,21.886a9.917,9.917,0,0,0,10.012-9.818A9.917,9.917,0,0,0,12.262,2.25,9.917,9.917,0,0,0,2.25,12.068,9.917,9.917,0,0,0,12.262,21.886Z" transform="translate(-2.25 -2.25)" fill="none" stroke="#462cff" stroke-linecap="round" stroke-linejoin="round" stroke-miterlimit="10" stroke-width="1.5"/>
    <path id="Path_11963" data-name="Path 11963" d="M12.06,12.031A2.266,2.266,0,1,0,9.752,9.766,2.287,2.287,0,0,0,12.06,12.031Z" transform="translate(-2.048 -2.213)" fill="none" stroke="#462cff" stroke-linecap="round" stroke-linejoin="round" stroke-miterlimit="10" stroke-width="1.5"/>
    <path id="Path_11964" data-name="Path 11964" d="M15.219,14.25c1.7,0,3.056,1.506,1.857,2.688a7.094,7.094,0,0,1-4.935,1.843,7.094,7.094,0,0,1-4.935-1.843c-1.2-1.182.157-2.688,1.857-2.688Z" transform="translate(-2.129 -2.166)" fill="none" stroke="#462cff" stroke-linecap="round" stroke-linejoin="round" stroke-miterlimit="10" stroke-width="1.5"/>
  </g>
</svg>
